<svg xmlns="http://www.w3.org/2000/svg" xmlns:xlink="http://www.w3.org/1999/xlink" width="296.462" height="48" viewBox="0 0 296.462 48">
  <defs>
    <filter id="address" x="0" y="0" width="296.462" height="48" filterUnits="userSpaceOnUse">
      <feOffset dy="3" input="SourceAlpha"/>
      <feGaussianBlur stdDeviation="3" result="blur"/>
      <feFlood flood-opacity="0.161"/>
      <feComposite operator="in" in2="blur"/>
      <feComposite in="SourceGraphic"/>
    </filter>
    <filter id="address-2" x="0" y="0" width="296.462" height="48" filterUnits="userSpaceOnUse">
      <feOffset dy="3" input="SourceAlpha"/>
      <feGaussianBlur stdDeviation="3" result="blur-2"/>
      <feFlood flood-opacity="0.161"/>
      <feComposite operator="in" in2="blur-2"/>
      <feComposite in="SourceGraphic"/>
    </filter>
  </defs>
  <g id="addressBox" transform="translate(9 -34.431)">
    <g transform="matrix(1, 0, 0, 1, -9, 34.43)" filter="url(#address)">
      <g id="address-3" data-name="address" transform="translate(9 6)" fill="#fff" stroke="#3c4151" stroke-width="0.4">
        <rect width="278.462" height="30" rx="9" stroke="none"/>
        <rect x="0.2" y="0.2" width="278.062" height="29.6" rx="8.8" fill="none"/>
      </g>
    </g>
    <g transform="matrix(1, 0, 0, 1, -9, 34.43)" filter="url(#address-2)">
      <g id="address-4" data-name="address" transform="translate(9 6)" fill="#fff">
        <path d="M 269.4621276855469 29.79999923706055 L 252.5555572509766 29.79999923706055 L 8.999992370605469 29.79999923706055 C 4.147671222686768 29.79999923706055 0.1999924182891846 25.85232162475586 0.1999924182891846 21 L 0.1999924182891846 9 C 0.1999924182891846 4.147678375244141 4.147671222686768 0.2000000029802322 8.999992370605469 0.2000000029802322 L 269.4621276855469 0.2000000029802322 C 274.314453125 0.2000000029802322 278.2621459960938 4.147678375244141 278.2621459960938 9 L 278.2621459960938 21 C 278.2621459960938 25.85232162475586 274.314453125 29.79999923706055 269.4621276855469 29.79999923706055 Z" stroke="none"/>
        <path d="M 9 0.3999996185302734 C 4.2579345703125 0.3999996185302734 0.399993896484375 4.257928848266602 0.399993896484375 9 L 0.399993896484375 21 C 0.399993896484375 25.7420711517334 4.2579345703125 29.60000038146973 9 29.60000038146973 L 252.5555572509766 29.60000038146973 L 269.4621276855469 29.60000038146973 C 274.2041931152344 29.60000038146973 278.0621337890625 25.7420711517334 278.0621337890625 21 L 278.0621337890625 9 C 278.0621337890625 4.257928848266602 274.2041931152344 0.3999996185302734 269.4621276855469 0.3999996185302734 L 9 0.3999996185302734 M 9 0 L 269.4621276855469 0 C 274.4326782226563 0 278.4621276855469 4.029428482055664 278.4621276855469 9 L 278.4621276855469 21 C 278.4621276855469 25.97057151794434 274.4326782226563 30 269.4621276855469 30 L 252.5555572509766 30 L 9 30 C 4.029449462890625 30 0 25.97057151794434 0 21 L 0 9 C 0 4.029428482055664 4.029449462890625 0 9 0 Z" stroke="none" fill="#3c4151"/>
      </g>
    </g>
    <path id="Rectangle_36" data-name="Rectangle 36" d="M0,0H24a9,9,0,0,1,9,9V21a9,9,0,0,1-9,9H0a0,0,0,0,1,0,0V0A0,0,0,0,1,0,0Z" transform="translate(245.43 40.43)" fill="#3c4151"/>
  </g>
</svg>
