<svg xmlns="http://www.w3.org/2000/svg" xmlns:xlink="http://www.w3.org/1999/xlink" width="505.67" height="89.846" viewBox="0 0 505.67 89.846">
  <defs>
    <filter id="address" x="0" y="0" width="505.67" height="89.846" filterUnits="userSpaceOnUse">
      <feOffset dy="3" input="SourceAlpha"/>
      <feGaussianBlur stdDeviation="3" result="blur"/>
      <feFlood flood-opacity="0.161"/>
      <feComposite operator="in" in2="blur"/>
      <feComposite in="SourceGraphic"/>
    </filter>
  </defs>
  <g id="addressBox" transform="translate(9 -34.431)">
    <g transform="matrix(1, 0, 0, 1, -9, 34.43)" filter="url(#address)">
      <g id="address-2" data-name="address" transform="translate(9 6)" fill="#fff" stroke="#3c4151" stroke-width="0.4">
        <rect width="487.671" height="71.846" rx="9" stroke="none"/>
        <rect x="0.2" y="0.2" width="487.271" height="71.446" rx="8.8" fill="none"/>
      </g>
    </g>
    <g id="address-3" data-name="address" transform="translate(0 40.431)" fill="#fff" stroke="#3c4151" stroke-width="0.4">
      <rect width="487.671" height="71.846" rx="9" stroke="none"/>
      <rect x="0.2" y="0.2" width="487.271" height="71.446" rx="8.8" fill="none"/>
    </g>
    <path id="Rectangle_36" data-name="Rectangle 36" d="M0,0H24a9,9,0,0,1,9,9V62.846a9,9,0,0,1-9,9H0a0,0,0,0,1,0,0V0A0,0,0,0,1,0,0Z" transform="translate(454.638 40.43)" fill="#3c4151"/>
    <text id="API" transform="translate(461.312 83.388)" fill="#f2b81e" font-size="20" font-family="AgencyFB-Reg, Agency FB"><tspan x="0" y="0">API</tspan></text>
  </g>
</svg>
