<svg xmlns="http://www.w3.org/2000/svg" width="118" height="106" viewBox="0 0 118 106">
  <g id="PLANE_GROUP_-_MENU" data-name="PLANE GROUP - MENU" transform="translate(-4 -5)">
    <rect id="PLANE_SQUARE" data-name="PLANE SQUARE" width="118" height="106" transform="translate(4 5)" fill="#f2b81e"/>
    <g id="LOGOPLANE" transform="translate(-9.846 -18.683)">
      <path id="path2313" d="M97.707,109.3c2.2-2.148,3.435-3.484,3.433-3.709,0-.193-2.409-9.455-5.351-20.582S90.44,64.613,90.44,64.415c0-.242,3.26-3.556,9.97-10.136,11.069-10.854,10.965-10.732,10.96-12.831a4.057,4.057,0,0,0-1.3-3.2,4.47,4.47,0,0,0-3.837-1.475,5.666,5.666,0,0,0-2.058.474c-.563.276-3.772,3.293-10.73,10.088l-9.927,9.694L61.806,51.4,40.1,45.767,36.5,49.288c-3.165,3.1-3.555,3.546-3.293,3.739.164.12,8.13,4.259,17.7,9.2S68.319,71.284,68.32,71.38s-3.2,3.306-7.112,7.133L54.1,85.471l-5.565-.661-5.565-.661-2.838,2.773c-2.21,2.159-2.79,2.818-2.618,2.976.121.111,2.87,1.555,6.107,3.209s6.022,3.135,6.188,3.292,1.71,2.912,3.43,6.121,3.212,5.916,3.314,6.016c.129.126,1.057-.673,3.026-2.606l2.84-2.788L61.8,98.169c-.337-2.736-.614-5.207-.615-5.493,0-.45.922-1.423,7-7.374,3.849-3.77,7.122-6.855,7.273-6.855.184,0,3.271,5.651,9.342,17.1,4.987,9.407,9.158,17.1,9.269,17.1A46.093,46.093,0,0,0,97.707,109.3Z" transform="translate(-0.238 -0.46)" fill="#2c2f3e"/>
    </g>
  </g>
</svg>
