<svg xmlns="http://www.w3.org/2000/svg" width="15.18" height="15.18" viewBox="0 0 15.18 15.18">
  <g id="InformationAlert" transform="translate(-710.366 -571.888)">
    <ellipse id="Ellipse_14" data-name="Ellipse 14" cx="1.518" cy="1.339" rx="1.518" ry="1.339" transform="translate(716.795 574.746)" fill="#fff"/>
    <path id="Path_5035" data-name="Path 5035" d="M744.087,603.333l-.79.8-.517.62v.646l.724-.181-.724,4.188,1.034.672,1.448-.672.8-.9.233-.983-.62-.233.258-2.068.362-1.5-.362-.672h-.776Z" transform="translate(-26.626 -25.596)" fill="#fff"/>
    <path id="iconfinder_info-alt_383122" d="M7.59,0a7.59,7.59,0,1,0,7.59,7.59A7.59,7.59,0,0,0,7.59,0ZM7.552,11.838a1.433,1.433,0,0,1-.593.233l-.034.016v-.016a.771.771,0,0,1-.153-.022L6.7,12.029a.755.755,0,0,1-.538-.941l.585-2.359.264-1.066c.246-.989-.779.21-.989-.245-.139-.3.8-.933,1.481-1.41a1.434,1.434,0,0,1,.593-.233l.034-.016v.016a.783.783,0,0,1,.153.022l.076.019a.784.784,0,0,1,.572.95l-.585,2.36-.265,1.066c-.245.989.763-.215.973.241C9.189,10.733,8.236,11.361,7.552,11.838ZM9.035,4.463a1.1,1.1,0,1,1-.8-1.33A1.1,1.1,0,0,1,9.035,4.463Z" transform="translate(710.366 571.885)" fill="#3f75c8"/>
  </g>
</svg>
