<svg xmlns="http://www.w3.org/2000/svg" width="142.66" height="137.174" viewBox="0 0 142.66 137.174">
  <path id="Path_5039" data-name="Path 5039" d="M0,137.174l34.864-28.711V49.723L0,78.435ZM70.629,77.856,36.465,49.723v58.74L70.629,136.6ZM81.893,21.947A10.974,10.974,0,1,1,70.919,10.972,10.973,10.973,0,0,1,81.893,21.947m8.441,10.975a21.946,21.946,0,1,0-35.89,3.043L71.35,60.355,88.5,35.61a21.777,21.777,0,0,0,1.691-2.438l.174-.25ZM72.27,136.4,105.9,108.705V49.967L72.27,77.662Zm70.39.775V78.435l-35.279-29.05v58.738Z" fill="#363e4e"/>
</svg>
