<svg xmlns="http://www.w3.org/2000/svg" width="15.18" height="15.18" viewBox="0 0 15.18 15.18">
  <g id="AcceptMarker" transform="translate(-736 -532)">
    <circle id="Ellipse_13" data-name="Ellipse 13" cx="7.59" cy="7.59" r="7.59" transform="translate(736 532)" fill="#24a635"/>
    <g id="yes" transform="translate(737.375 534.107)">
      <path id="XMLID_8_" d="M26.608,38.684l4.616-5.566a1.6,1.6,0,0,1,2.565,0,2.528,2.528,0,0,1,0,3.1q-2.964,3.559-5.9,7.117a1.581,1.581,0,0,1-2.459.109c-.03-.036-.075-.055-.106-.109l-3.319-4.051a2.528,2.528,0,0,1,0-3.1,1.6,1.6,0,0,1,2.565,0l2.037,2.5Zm0,1.04-2.474-3.011a1.068,1.068,0,0,0-1.7,0,1.691,1.691,0,0,0,0,2.062l3.319,4.051v-.018h0a1.068,1.068,0,0,0,1.7,0c4.511-5.42,1.4-1.661,5.9-7.117a1.691,1.691,0,0,0,0-2.062,1.068,1.068,0,0,0-1.7,0Z" transform="translate(-21.475 -32.475)" fill="none" fill-rule="evenodd"/>
      <path id="XMLID_1_" d="M28.589,41.033l2.124-2.569,1.4-1.692a.747.747,0,0,1,1.192,0,1.182,1.182,0,0,1,0,1.442c-3.143,3.815-.97,1.187-4.124,4.989a.747.747,0,0,1-1.192,0h0v.013l-2.32-2.832a1.215,1.215,0,0,1-.04-1.463.781.781,0,0,1,1.224-.048Z" transform="translate(-23.31 -34.227)" fill="#fff" fill-rule="evenodd"/>
    </g>
  </g>
</svg>
