<svg id="yes" xmlns="http://www.w3.org/2000/svg" width="16.925" height="15.162" viewBox="0 0 16.925 15.162">
  <path id="XMLID_8_" d="M28.238,40.656l6.082-7.334a2.108,2.108,0,0,1,3.379,0,3.331,3.331,0,0,1,0,4.088q-3.906,4.689-7.772,9.377a2.083,2.083,0,0,1-3.24.144c-.04-.048-.1-.072-.139-.144L22.176,41.45a3.331,3.331,0,0,1,0-4.088,2.108,2.108,0,0,1,3.379,0l2.683,3.294Zm0,1.371-3.26-3.967a1.407,1.407,0,0,0-2.246,0,2.228,2.228,0,0,0,0,2.717L27.1,46.114V46.09h0a1.407,1.407,0,0,0,2.246,0c5.943-7.141,1.848-2.188,7.772-9.377a2.228,2.228,0,0,0,0-2.717,1.407,1.407,0,0,0-2.246,0Z" transform="translate(-21.475 -32.475)" fill="none" fill-rule="evenodd"/>
  <path id="XMLID_1_" d="M31.409,45.065l4-4.842,2.636-3.189a1.407,1.407,0,0,1,2.246,0,2.228,2.228,0,0,1,0,2.717c-5.923,7.189-1.829,2.236-7.772,9.4a1.407,1.407,0,0,1-2.246,0h0v.024L25.9,43.839a2.291,2.291,0,0,1-.075-2.758,1.471,1.471,0,0,1,2.306-.09Z" transform="translate(-24.646 -35.513)" fill="#f2b81e" fill-rule="evenodd"/>
</svg>
