<svg xmlns="http://www.w3.org/2000/svg" xmlns:xlink="http://www.w3.org/1999/xlink" width="55" height="49" viewBox="0 0 55 49">
  <defs>
    <filter id="incRec2" x="0" y="0" width="55" height="49" filterUnits="userSpaceOnUse">
      <feOffset dy="3" input="SourceAlpha"/>
      <feGaussianBlur stdDeviation="3" result="blur"/>
      <feFlood flood-opacity="0.161"/>
      <feComposite operator="in" in2="blur"/>
      <feComposite in="SourceGraphic"/>
    </filter>
  </defs>
  <g id="Waypoints_Loader" data-name="Waypoints Loader" transform="translate(-322 -515)">
    <g transform="matrix(1, 0, 0, 1, 322, 515)" filter="url(#incRec2)">
      <rect id="incRec2-2" data-name="incRec2" width="37" height="31" rx="6" transform="translate(9 6)" fill="#2f3243"/>
    </g>
    <g id="iconfinder_Network-RAD_2834767" transform="translate(337.007 525.33)">
      <path id="Path_5040" data-name="Path 5040" d="M48.931,50a8.662,8.662,0,0,1,5.793.476L67.8,35.41a6.755,6.755,0,0,1-.808-.675L46.633,45.765Z" transform="translate(-45.464 -32.241)" fill="none"/>
      <path id="Path_5041" data-name="Path 5041" d="M41.514,60.287a7.442,7.442,0,0,1,3.246-6.282L42.8,49.058,21.555,64.813a7.614,7.614,0,0,1,.693,1.574l19.326-5.164a8.149,8.149,0,0,1-.06-.936Z" transform="translate(-20.324 -45.862)" fill="none"/>
      <path id="Path_5042" data-name="Path 5042" d="M67.443,36.439,55.957,53.127a6.682,6.682,0,0,1,1.727,7.313l14.93,9.836a6.4,6.4,0,0,1,3.531-2.631L71,37.265c-.144.01-.288.023-.434.023a6.189,6.189,0,0,1-3.126-.849Z" transform="translate(-53.164 -42.569)" fill="none"/>
      <path id="Path_5043" data-name="Path 5043" d="M36.338,22.064l8.768,3.767,18.262-2.306c-.675-.244-.9-.524-.642-.8L39.156,21.446a9.935,9.935,0,0,1-2.819.618Z" transform="translate(-37.638 -13.188)" fill="none"/>
      <path id="Path_5044" data-name="Path 5044" d="M35.288,64.269c-.552,2.306-1.533,3.554-2.531,3.22S30.915,65.3,30.582,62.7l-7.9,5.164c.015.31.024.623.024.936,0,.08,0,.157,0,.237L41.365,76.1c.03-.338.069-.67.116-.993Z" transform="translate(-19.82 -56.371)" fill="none"/>
      <path id="Path_5045" data-name="Path 5045" d="M41.942,35.5,33.17,25.638a12.62,12.62,0,0,1-3.617.055l-12,16.164a9.317,9.317,0,0,1,2.728.8Z" transform="translate(-17.537 -24.043)" fill="none"/>
      <path id="Path_5046" data-name="Path 5046" d="M30.458,28.81c-.051,0-.1,0-.151.007l-1.79-9.827a2.136,2.136,0,0,0,1.607-2.167,2.161,2.161,0,0,0-1.855-1.977,2.234,2.234,0,0,0-2.416,1.305L17.9,13.974a2.125,2.125,0,0,0-1.594-2.419,2.241,2.241,0,0,0-2.662,1.293,2.092,2.092,0,0,0,1.09,2.664L10.619,26.167c-.055,0-.11-.008-.166-.008A2.184,2.184,0,0,0,8.24,28.113a2.147,2.147,0,0,0,1.854,2.272A2.219,2.219,0,0,0,12.6,28.8l15.638,2.072c0,.023,0,.046,0,.069a2.22,2.22,0,1,0,2.218-2.127Zm0,3.811a1.685,1.685,0,1,1,1.755-1.683,1.72,1.72,0,0,1-1.755,1.683Zm-.607-3.728a2.219,2.219,0,0,0-1.229.851l-5.2-3.182a2.059,2.059,0,0,0-.6-2.366l4-5.4a2.28,2.28,0,0,0,1.088.275c.051,0,.1,0,.151-.007ZM8.7,28.286a1.757,1.757,0,1,1,1.755,1.683A1.72,1.72,0,0,1,8.7,28.286Zm3.608-1.168,7.276-4.62.671,1.45a2.077,2.077,0,0,0-1.092,2.117l-6.619,1.514a2.085,2.085,0,0,0-.237-.462Zm15.6-11.856a1.685,1.685,0,1,1-1.755,1.683,1.72,1.72,0,0,1,1.755-1.683ZM26.445,18.54l-4,5.4a2.293,2.293,0,0,0-1.771-.171l-.7-1.518L26.2,18.3a2.183,2.183,0,0,0,.247.242ZM21.36,27.474a1.685,1.685,0,1,1,1.755-1.683,1.72,1.72,0,0,1-1.755,1.683Zm4.366-10.9a2.014,2.014,0,0,0,.217,1.349l-6.16,3.911-2.958-6.389a2.162,2.162,0,0,0,.951-1.048ZM15.72,11.924a1.685,1.685,0,1,1-1.755,1.683A1.72,1.72,0,0,1,15.72,11.924Zm-.549,3.742a2.271,2.271,0,0,0,1.232-.036l2.989,6.456-7.381,4.686a2.237,2.237,0,0,0-.929-.526Zm-2.5,12.689c0-.023,0-.046,0-.069a2.051,2.051,0,0,0-.021-.275L19.27,26.5A2.2,2.2,0,0,0,21.092,27.9a2.252,2.252,0,0,0,2.121-.944l5.19,3.178a2.049,2.049,0,0,0-.1.291Z" transform="translate(-8.24 -11.483)" fill="#fff" stroke="#fff" stroke-width="0.3"/>
    </g>
  </g>
</svg>
