<svg xmlns="http://www.w3.org/2000/svg" width="27.074" height="13.036" viewBox="0 0 27.074 13.036">
  <path id="wind" d="M30.074,14.011a4.011,4.011,0,1,0-8.022,0h1a3.008,3.008,0,1,1,3,3.008H3v1H26.064a4.013,4.013,0,0,0,4.009-4.011Zm-9.025-1A3.008,3.008,0,0,0,15.033,13v.009h1a2.005,2.005,0,1,1,2,2.005H6.008v1H18.042a3.01,3.01,0,0,0,3.008-3.008ZM25.06,21.03a2,2,0,0,1-2.005,2.005h0a2,2,0,0,1-2.005-2V21.03h1a1,1,0,0,0,1,1h0a1,1,0,0,0,1-1h0a1,1,0,0,0-1.01-1H9.016v-1H23.061a2,2,0,0,1,2,2.005Z" transform="translate(-3 -10)" fill="#fff" fill-rule="evenodd"/>
</svg>
