<svg xmlns="http://www.w3.org/2000/svg" width="15.184" height="15.184" viewBox="0 0 15.184 15.184">
  <g id="iconfinder_Close_1891023" transform="translate(0 0)">
    <circle id="Ellipse_12" data-name="Ellipse 12" cx="7.592" cy="7.592" r="7.592" fill="#c93636"/>
    <path id="Path_5034" data-name="Path 5034" d="M36.048,34.873l-3.132-3.132,3.12-3.132a.115.115,0,0,0,0-.166l-1.008-1.008a.115.115,0,0,0-.166,0l-3.12,3.132-3.12-3.12a.115.115,0,0,0-.166,0l-1.008,1.008a.115.115,0,0,0,0,.166l3.108,3.12-3.12,3.12a.115.115,0,0,0,0,.166l1.008,1.008a.114.114,0,0,0,.166,0l3.132-3.12,3.12,3.12a.143.143,0,0,0,.178.012l1.008-1.008A.115.115,0,0,0,36.048,34.873Z" transform="translate(-24.15 -24.15)" fill="#fff"/>
  </g>
</svg>
